<svg width="71" height="58" viewBox="0 0 71 58" fill="none" xmlns="http://www.w3.org/2000/svg">
<g clip-path="url(#clip0_2801_9859)">
<path d="M36.1338 37H31.0928L30.2102 30.2906H24.0912L23.2263 37H18.6356L23.7298 0H31.0455L36.1338 37ZM24.725 25.2661H29.5468L27.1359 6.57194L24.725 25.2661Z" fill="#8A0F0C"/>
<path d="M57.9563 8.50767V9.83401C57.9563 13.6398 56.9552 16.0714 54.728 17.2842C57.4113 18.4791 58.4539 21.305 58.4539 25.2123V28.1996C58.4539 33.9052 55.8653 36.9701 50.8658 36.9701H42.9993V0H50.5459C55.729 0 57.9563 2.80203 57.9563 8.50767ZM47.981 5.28742V15.0677H49.9358C51.8017 15.0677 52.939 14.1117 52.939 11.1544V9.09317C52.939 6.44647 52.163 5.28742 50.3919 5.28742H47.981ZM47.981 20.3491V31.7006H50.848C52.5303 31.7006 53.4366 30.7985 53.4366 28.0502V24.824C53.4366 21.3887 52.4829 20.3312 50.2083 20.3312L47.981 20.3491Z" fill="#0F265C"/>
<path d="M68.5002 5.98047L66.0005 8.48378V11.0468L68.5002 8.5256L71 11.0468V8.48378L68.5002 5.98047Z" fill="#0F265C"/>
<path d="M71 17.0033V14.4581L68.5002 11.9548L66.0005 14.4581V17.0033L68.5002 14.482L71 17.0033Z" fill="#0F265C"/>
<path d="M68.5002 17.9116L66.0005 20.4149V37.0001H71V20.4149L68.5002 17.9116Z" fill="#0F265C"/>
<path d="M68.5002 2.55708L71 5.07234V0H66.0005V5.07234L68.5002 2.55708Z" fill="#0F265C"/>
<path d="M4.9995 16.9973V14.4462L2.5116 11.9548L0 14.4701V17.0152L2.5116 14.482L4.9995 16.9973Z" fill="#8A0F0C"/>
<path d="M4.9995 5.06636V0H0V5.08429L2.5116 2.55708L4.9995 5.06636Z" fill="#8A0F0C"/>
<path d="M4.9995 31.7187V20.403L2.5116 17.9116L0 20.4269V37.0001H13.2273V31.7187H4.9995Z" fill="#8A0F0C"/>
<path d="M2.5116 8.5256L4.9995 11.0409V8.4778L2.5116 5.98047L0 8.49573V11.0588L2.5116 8.5256Z" fill="#8A0F0C"/>
</g>
<path d="M3.962 46.23C2.317 46.23 1.211 46.979 0.84 48.358L2.002 48.652C2.254 47.77 2.884 47.357 3.948 47.357C5.194 47.357 5.782 47.938 5.789 49.261L3.612 49.527C1.729 49.765 0.56 50.437 0.56 51.991C0.56 53.356 1.561 54.21 3.15 54.21C4.368 54.21 5.264 53.727 5.789 52.81V54H7.035V49.429C7.035 47.28 6.027 46.23 3.962 46.23ZM5.789 50.234V50.255C5.789 50.591 5.789 51.046 5.67 51.424C5.432 52.453 4.585 53.132 3.409 53.132C2.345 53.132 1.792 52.712 1.792 51.907C1.792 51.081 2.373 50.661 3.752 50.486L5.789 50.234ZM11.872 46.23C9.863 46.23 8.435 47.714 8.435 50.087C8.435 52.425 9.849 53.93 11.872 53.93C13.076 53.93 13.909 53.44 14.399 52.579V53.58C14.399 55.267 13.587 56.387 12.047 56.387C11.067 56.387 10.346 55.925 10.003 55.064L8.743 55.393C9.275 56.807 10.486 57.57 12.047 57.57C14.385 57.57 15.645 55.911 15.645 53.594V46.44H14.399V47.581C13.909 46.727 13.083 46.23 11.872 46.23ZM12.082 52.747C10.64 52.747 9.758 51.753 9.758 50.087C9.758 48.456 10.626 47.413 12.082 47.413C13.503 47.413 14.399 48.414 14.399 50.087C14.399 51.704 13.559 52.747 12.082 52.747ZM20.853 53.041C19.495 53.041 18.634 52.131 18.522 50.57H24.318C24.43 47.882 23.142 46.23 20.825 46.23C18.634 46.23 17.185 47.791 17.185 50.22C17.185 52.621 18.641 54.21 20.853 54.21C22.393 54.21 23.597 53.454 24.192 52.11L22.988 51.711C22.575 52.565 21.896 53.041 20.853 53.041ZM18.55 49.569C18.732 48.169 19.544 47.364 20.825 47.364C22.12 47.364 22.911 48.155 23.023 49.569H18.55ZM31.0474 54H32.2934V49.632C32.2934 47.294 31.0824 46.23 29.2624 46.23C27.9534 46.23 27.2674 46.839 26.9104 47.532V46.44H25.6644V54H26.9104V49.842C26.9104 48.155 27.7574 47.413 28.9964 47.413C30.2494 47.413 31.0474 48.162 31.0474 49.842V54ZM37.292 54.21C38.853 54.21 39.994 53.447 40.526 52.033L39.266 51.704C38.93 52.551 38.286 53.027 37.292 53.027C35.787 53.027 35.01 51.907 35.01 50.22C35.01 48.512 35.794 47.413 37.292 47.413C38.216 47.413 38.972 47.924 39.294 48.799L40.526 48.428C40.127 47.07 38.902 46.23 37.306 46.23C35.066 46.23 33.687 47.819 33.687 50.22C33.687 52.593 35.045 54.21 37.292 54.21ZM44.0105 57.36L48.1265 46.44H46.8595L44.6475 52.39L42.2885 46.44H40.9795L44.0455 53.972L42.7995 57.36H44.0105Z" fill="#232323"/>
<defs>
<clipPath id="clip0_2801_9859">
<rect width="71" height="37" fill="white"/>
</clipPath>
</defs>
</svg>
